<svg width="50" height="500" viewBox="0 0 50 500" fill="none" xmlns="http://www.w3.org/2000/svg">
<path fill-rule="evenodd" clip-rule="evenodd" d="M6.25 0H0V500H6.25V495H43.75V500H50V0H43.75V5H6.25V0ZM43.75 87H6.25V101H43.75V87ZM6.25 255H43.75V269H6.25V255ZM43.75 423H6.25V437H43.75V423ZM6.25 39H43.75V53H6.25V39ZM43.75 207H6.25V221H43.75V207ZM6.25 375H43.75V389H6.25V375ZM43.75 135H6.25V149H43.75V135ZM6.25 303H43.75V317H6.25V303ZM43.75 471H6.25V485H43.75V471ZM6.25 15H43.75V29H6.25V15ZM43.75 183H6.25V197H43.75V183ZM6.25 351H43.75V365H6.25V351ZM43.75 111H6.25V125H43.75V111ZM6.25 279H43.75V293H6.25V279ZM43.75 447H6.25V461H43.75V447ZM6.25 63H43.75V77H6.25V63ZM43.75 231H6.25V245H43.75V231ZM6.25 399H43.75V413H6.25V399ZM43.75 159H6.25V173H43.75V159ZM6.25 327H43.75V341H6.25V327Z" fill="black"/>
</svg>
