<svg width="1000" height="500" viewBox="0 0 1000 500" fill="none" xmlns="http://www.w3.org/2000/svg">
<path fill-rule="evenodd" clip-rule="evenodd" d="M1000 3.33339V5.89702e-05L2.18557e-05 1.52588e-05V3.33335L10 3.33335L10 23.3333H2.18557e-05V26.6667L258 26.6667V473.333H1.16564e-06L1.01993e-06 476.667H10L10 496.667H1.45705e-07L0 500L1000 500V496.667L990 496.667V476.667L1000 476.667V473.333H743V26.6667L1000 26.6667V23.3334H990V3.33339L1000 3.33339ZM723 26.6667L278 26.6667V473.333L723 473.333V26.6667ZM826 23.3334V3.33338L798 3.33338V23.3334L826 23.3334ZM490 3.33337V23.3334H462V3.33337L490 3.33337ZM154 23.3334V3.33336L126 3.33335V23.3334L154 23.3334ZM922 3.33339V23.3334H894V3.33339L922 3.33339ZM586 23.3334V3.33337L558 3.33337V23.3334L586 23.3334ZM250 3.33336V23.3334L222 23.3334V3.33336L250 3.33336ZM730 23.3334V3.33338L702 3.33338V23.3334L730 23.3334ZM394 3.33337V23.3334L366 23.3334V3.33336L394 3.33337ZM58 23.3334V3.33335L30 3.33335L30 23.3334H58ZM970 3.33339V23.3334H942V3.33339L970 3.33339ZM634 23.3334V3.33338L606 3.33338V23.3334L634 23.3334ZM298 3.33336V23.3334L270 23.3334V3.33336L298 3.33336ZM778 23.3334V3.33338L750 3.33338V23.3334L778 23.3334ZM442 3.33337V23.3334H414V3.33337L442 3.33337ZM106 23.3334V3.33335L78 3.33335V23.3334L106 23.3334ZM874 3.33339V23.3334L846 23.3334V3.33339L874 3.33339ZM538 23.3334V3.33337L510 3.33337V23.3334H538ZM202 3.33336V23.3334L174 23.3334V3.33336L202 3.33336ZM682 23.3334V3.33338L654 3.33338V23.3334L682 23.3334ZM346 3.33336V23.3334L318 23.3334V3.33336L346 3.33336ZM826 496.667V476.667H798V496.667H826ZM490 476.667V496.667H462V476.667H490ZM154 496.667V476.667H126V496.667H154ZM922 476.667V496.667H894V476.667H922ZM586 496.667V476.667H558V496.667H586ZM250 476.667V496.667H222V476.667H250ZM730 496.667V476.667H702V496.667H730ZM394 476.667V496.667H366V476.667H394ZM58 496.667L58 476.667H30V496.667H58ZM970 476.667V496.667H942V476.667H970ZM634 496.667V476.667H606V496.667H634ZM298 476.667V496.667H270V476.667H298ZM778 496.667V476.667H750V496.667H778ZM442 476.667V496.667H414V476.667H442ZM106 496.667V476.667H78V496.667H106ZM874 476.667V496.667H846V476.667H874ZM538 496.667V476.667H510V496.667H538ZM202 476.667V496.667H174V476.667H202ZM682 496.667V476.667H654V496.667H682ZM346 476.667V496.667H318V476.667H346Z" fill="black"/>
</svg>
