<svg width="40" height="25" viewBox="0 0 40 25" fill="none" xmlns="http://www.w3.org/2000/svg">
<path d="M18.3578 24.5776V0.422625H31.357C33.1086 0.422625 34.5606 0.739527 35.7131 1.37333C36.8885 2.00713 37.7643 2.89915 38.3405 4.04939C38.9167 5.17615 39.2048 6.47896 39.2048 7.95784C39.2048 9.53061 38.8591 10.9273 38.1677 12.148C37.4762 13.3452 36.4736 14.2607 35.1599 14.8945L40 24.5776H34.2956L30.1124 15.7747H23.5091V24.5776H18.3578ZM23.5091 11.6198H30.6655C31.7027 11.6198 32.5094 11.3029 33.0856 10.6691C33.6618 10.0118 33.9499 9.13155 33.9499 8.02826C33.9499 7.32404 33.8231 6.72544 33.5696 6.23249C33.316 5.71605 32.9473 5.32873 32.4633 5.07051C31.9793 4.8123 31.38 4.68319 30.6655 4.68319H23.5091V11.6198Z" fill="#A900A9"/>
<path d="M11.6854 25C9.21925 25 7.11034 24.5657 5.35869 23.6972C3.60703 22.8052 2.27024 21.4319 1.34832 19.5775C0.449438 17.723 0 15.3638 0 12.5C0 8.27465 1.01412 5.14085 3.04235 3.09859C5.09363 1.03286 7.97465 0 11.6854 0C13.7136 0 15.5344 0.352112 17.1478 1.05634C18.7612 1.76056 20.0288 2.8169 20.9507 4.22535C21.8957 5.6338 22.3682 7.4061 22.3682 9.54225H17.1824C17.1824 8.41549 16.9519 7.46479 16.4909 6.69014C16.053 5.91549 15.4192 5.32864 14.5895 4.92958C13.7828 4.50704 12.8378 4.29577 11.7545 4.29577C10.2795 4.29577 9.05791 4.5892 8.08989 5.17606C7.14492 5.76291 6.44195 6.63145 5.98099 7.78169C5.54307 8.90845 5.32412 10.2934 5.32412 11.9366V13.0282C5.32412 14.7183 5.5546 16.1385 6.01556 17.2887C6.47652 18.4155 7.16797 19.2723 8.08989 19.8592C9.03486 20.4225 10.2449 20.7042 11.72 20.7042C12.8724 20.7042 13.875 20.5047 14.7277 20.1056C15.5805 19.7066 16.2374 19.1197 16.6984 18.3451C17.1593 17.5704 17.3898 16.6197 17.3898 15.493H22.3682C22.3682 17.6291 21.9072 19.4014 20.9853 20.8099C20.0864 22.2183 18.8303 23.2746 17.2169 23.9789C15.6036 24.6596 13.7597 25 11.6854 25Z" fill="white"/>
</svg>
